<?xml version="1.0" encoding="UTF-8" standalone="no"?>
<svg width="1000px" height="1618px" viewBox="0 0 1000 1618" version="1.1" xmlns="http://www.w3.org/2000/svg" xmlns:xlink="http://www.w3.org/1999/xlink" xmlns:sketch="http://www.bohemiancoding.com/sketch/ns">
    <!-- Generator: Sketch 3.3.2 (12043) - http://www.bohemiancoding.com/sketch -->
    <title>tirelli_logo_white</title>
    <desc>Created with Sketch.</desc>
    <defs></defs>
    <g id="Page-1" stroke="none" stroke-width="1" fill="none" fill-rule="evenodd" sketch:type="MSPage">
        <g id="tirelli_logo_white" sketch:type="MSLayerGroup">
            <g id="Page-1" sketch:type="MSShapeGroup">
                <g id="next">
                    <rect id="Rectangle-2-Copy-3" fill="#FFFFFF" transform="translate(500.000000, 500.550781) rotate(-90.000000) translate(-500.000000, -500.550781) " x="1.87000012e-07" y="0.550781" width="1000" height="1000"></rect>
                    <path d="M100.725,1617.10678 C125.158,1617.10678 140.832,1610.65278 149.591,1602.81578 L137.144,1558.55978 C133.917,1561.78678 125.619,1565.01378 116.86,1565.01378 C103.952,1565.01378 96.576,1554.41078 96.576,1540.58078 L96.576,1440.08278 L141.754,1440.08278 L141.754,1388.91178 L96.576,1388.91178 L96.576,1328.05978 L37.568,1328.05978 L37.568,1388.91178 L0.688,1388.91178 L0.688,1440.08278 L37.568,1440.08278 L37.568,1556.25478 C37.568,1595.90078 59.696,1617.10678 100.725,1617.10678 L100.725,1617.10678 L100.725,1617.10678 Z M191.043999,1364.93978 C210.405999,1364.93978 226.079999,1349.26578 226.079999,1329.90378 C226.079999,1310.54178 210.405999,1295.32878 191.043999,1295.32878 C172.142999,1295.32878 156.007999,1310.54178 156.007999,1329.90378 C156.007999,1349.26578 172.142999,1364.93978 191.043999,1364.93978 L191.043999,1364.93978 L191.043999,1364.93978 Z M220.547999,1611.57478 L220.547999,1388.91178 L162.000999,1388.91178 L162.000999,1611.57478 L220.547999,1611.57478 L220.547999,1611.57478 Z M317.320999,1611.57478 L317.320999,1464.51578 C327.001999,1450.22478 352.817999,1439.16078 372.179999,1439.16078 C378.633999,1439.16078 384.165999,1439.62178 388.314999,1440.54378 L388.314999,1383.37978 C360.654999,1383.37978 332.994999,1399.51478 317.320999,1419.33778 L317.320999,1388.91178 L258.773999,1388.91178 L258.773999,1611.57478 L317.320999,1611.57478 L317.320999,1611.57478 Z M509.520998,1617.10678 C544.095998,1617.10678 579.131998,1606.50378 601.259998,1586.21978 L575.443998,1548.41778 C561.152998,1562.24778 534.875998,1570.54578 515.974998,1570.54578 C478.172998,1570.54578 455.583998,1547.03478 451.895998,1518.91378 L617.394998,1518.91378 L617.394998,1506.00578 C617.394998,1433.16778 572.216998,1383.37978 505.832998,1383.37978 C438.065998,1383.37978 390.582998,1435.47278 390.582998,1500.01278 C390.582998,1571.46778 441.753998,1617.10678 509.520998,1617.10678 L509.520998,1617.10678 L509.520998,1617.10678 Z M560.691998,1479.26778 L450.973998,1479.26778 C453.739998,1457.13978 469.413998,1429.94078 505.832998,1429.94078 C544.556998,1429.94078 559.308998,1458.06178 560.691998,1479.26778 L560.691998,1479.26778 L560.691998,1479.26778 Z M698.493998,1611.57478 L698.493998,869.328781 L639.946998,869.328781 L639.946998,1611.57478 L698.493998,1611.57478 L698.493998,1611.57478 Z M766.684997,1616.64578 C786.968997,1616.64578 804.025997,1599.58878 804.025997,1579.30478 C804.025997,1559.02078 786.968997,1541.96378 766.684997,1541.96378 C746.400997,1541.96378 729.343997,1559.02078 729.343997,1579.30478 C729.343997,1599.58878 746.400997,1616.64578 766.684997,1616.64578 L766.684997,1616.64578 L766.684997,1616.64578 Z M960.691996,1364.93978 C980.053996,1364.93978 995.727996,1349.26578 995.727996,1329.90378 C995.727996,1310.54178 980.053996,1295.32878 960.691996,1295.32878 C941.790996,1295.32878 925.655996,1310.54178 925.655996,1329.90378 C925.655996,1349.26578 941.790996,1364.93978 960.691996,1364.93978 L960.691996,1364.93978 L960.691996,1364.93978 Z M990.195996,1611.57478 L990.195996,1388.91178 L931.648996,1388.91178 L931.648996,1611.57478 L990.195996,1611.57478 L990.195996,1611.57478 Z M893.422996,1611.57478 L893.422996,869.328781 L834.875996,869.328781 L834.875996,1611.57478 L893.422996,1611.57478 L893.422996,1611.57478 Z" id="tirel.li-copy" fill="#FFFFFF"></path>
                    <rect id="Rectangle-4-Copy-3" fill="#000000" x="640" y="385.351625" width="58.5" height="615.330338"></rect>
                    <rect id="Rectangle-4-Copy-4" fill="#000000" x="835" y="385.351625" width="58.5" height="615.330338"></rect>
                </g>
            </g>
        </g>
    </g>
</svg>