<?xml version="1.0" encoding="UTF-8" standalone="no"?>
<svg width="1000px" height="1618px" viewBox="0 0 1000 1618" version="1.1" xmlns="http://www.w3.org/2000/svg" xmlns:xlink="http://www.w3.org/1999/xlink" xmlns:sketch="http://www.bohemiancoding.com/sketch/ns">
    <!-- Generator: Sketch 3.3.2 (12043) - http://www.bohemiancoding.com/sketch -->
    <title>next</title>
    <desc>Created with Sketch.</desc>
    <defs></defs>
    <g id="Page-1" stroke="none" stroke-width="1" fill="none" fill-rule="evenodd" sketch:type="MSPage">
        <g id="next" sketch:type="MSArtboardGroup">
            <rect id="Rectangle-2-Copy-3" fill="#000000" sketch:type="MSShapeGroup" transform="translate(502.000000, 499.550781) rotate(-90.000000) translate(-502.000000, -499.550781) " x="2" y="-0.449218813" width="1000" height="1000"></rect>
            <path d="M102.725,1616.10678 C127.158,1616.10678 142.832,1609.65278 151.591,1601.81578 L139.144,1557.55978 C135.917,1560.78678 127.619,1564.01378 118.86,1564.01378 C105.952,1564.01378 98.576,1553.41078 98.576,1539.58078 L98.576,1439.08278 L143.754,1439.08278 L143.754,1387.91178 L98.576,1387.91178 L98.576,1327.05978 L39.568,1327.05978 L39.568,1387.91178 L2.688,1387.91178 L2.688,1439.08278 L39.568,1439.08278 L39.568,1555.25478 C39.568,1594.90078 61.696,1616.10678 102.725,1616.10678 L102.725,1616.10678 Z M193.043999,1363.93978 C212.405999,1363.93978 228.079999,1348.26578 228.079999,1328.90378 C228.079999,1309.54178 212.405999,1294.32878 193.043999,1294.32878 C174.142999,1294.32878 158.007999,1309.54178 158.007999,1328.90378 C158.007999,1348.26578 174.142999,1363.93978 193.043999,1363.93978 L193.043999,1363.93978 Z M222.547999,1610.57478 L222.547999,1387.91178 L164.000999,1387.91178 L164.000999,1610.57478 L222.547999,1610.57478 Z M319.320999,1610.57478 L319.320999,1463.51578 C329.001999,1449.22478 354.817999,1438.16078 374.179999,1438.16078 C380.633999,1438.16078 386.165999,1438.62178 390.314999,1439.54378 L390.314999,1382.37978 C362.654999,1382.37978 334.994999,1398.51478 319.320999,1418.33778 L319.320999,1387.91178 L260.773999,1387.91178 L260.773999,1610.57478 L319.320999,1610.57478 Z M511.520998,1616.10678 C546.095998,1616.10678 581.131998,1605.50378 603.259998,1585.21978 L577.443998,1547.41778 C563.152998,1561.24778 536.875998,1569.54578 517.974998,1569.54578 C480.172998,1569.54578 457.583998,1546.03478 453.895998,1517.91378 L619.394998,1517.91378 L619.394998,1505.00578 C619.394998,1432.16778 574.216998,1382.37978 507.832998,1382.37978 C440.065998,1382.37978 392.582998,1434.47278 392.582998,1499.01278 C392.582998,1570.46778 443.753998,1616.10678 511.520998,1616.10678 L511.520998,1616.10678 Z M562.691998,1478.26778 L452.973998,1478.26778 C455.739998,1456.13978 471.413998,1428.94078 507.832998,1428.94078 C546.556998,1428.94078 561.308998,1457.06178 562.691998,1478.26778 L562.691998,1478.26778 Z M700.493998,1610.57478 L700.493998,868.328781 L641.946998,868.328781 L641.946998,1610.57478 L700.493998,1610.57478 Z M768.684997,1615.64578 C788.968997,1615.64578 806.025997,1598.58878 806.025997,1578.30478 C806.025997,1558.02078 788.968997,1540.96378 768.684997,1540.96378 C748.400997,1540.96378 731.343997,1558.02078 731.343997,1578.30478 C731.343997,1598.58878 748.400997,1615.64578 768.684997,1615.64578 L768.684997,1615.64578 Z M962.691996,1363.93978 C982.053996,1363.93978 997.727996,1348.26578 997.727996,1328.90378 C997.727996,1309.54178 982.053996,1294.32878 962.691996,1294.32878 C943.790996,1294.32878 927.655996,1309.54178 927.655996,1328.90378 C927.655996,1348.26578 943.790996,1363.93978 962.691996,1363.93978 L962.691996,1363.93978 Z M992.195996,1610.57478 L992.195996,1387.91178 L933.648996,1387.91178 L933.648996,1610.57478 L992.195996,1610.57478 Z M895.422996,1610.57478 L895.422996,868.328781 L836.875996,868.328781 L836.875996,1610.57478 L895.422996,1610.57478 Z" id="tirel.li-copy" fill="#000000" sketch:type="MSShapeGroup"></path>
            <rect id="Rectangle-4-Copy-3" fill="#FFFFFF" sketch:type="MSShapeGroup" x="642" y="384.351625" width="58.5" height="615.330338"></rect>
            <rect id="Rectangle-4-Copy-4" fill="#FFFFFF" sketch:type="MSShapeGroup" x="837" y="384.351625" width="58.5" height="615.330338"></rect>
        </g>
    </g>
</svg>